<svg version="1.2" xmlns="http://www.w3.org/2000/svg" viewBox="0 0 85 54" width="85" height="54"><style>.a{fill:#fefefe}</style><path class="a" d="m0.3 49h0.3v2.2h1l1.4-2.2h0.3l-1.5 2.4 1.6 2.6h-0.3l-1.5-2.5h-1v2.5h-0.3z"/><path fill-rule="evenodd" class="a" d="m7.7 48.9c1.4 0 2.5 1.2 2.5 2.6 0 1.4-1.1 2.6-2.5 2.6-1.4 0-2.5-1.2-2.5-2.6 0-1.4 1.1-2.6 2.5-2.6zm0 4.9c1.2 0 2.2-1 2.2-2.3 0-1.3-1-2.3-2.2-2.3-1.2 0-2.2 1-2.2 2.3 0 1.3 1 2.3 2.2 2.3z"/><path fill-rule="evenodd" class="a" d="m12.7 49h1.6c0.9 0 1.5 0.6 1.5 1.5 0 0.9-0.6 1.4-1.5 1.4h-1.3v2.1h-0.3zm1.6 2.6c0.7 0 1.2-0.4 1.2-1.2 0-0.7-0.5-1.1-1.2-1.1h-1.3v2.3z"/><path class="a" d="m18 53.2c0 0 0.5 0.6 1.4 0.6 0.6 0 1.1-0.4 1.1-1 0-1.4-2.6-1-2.6-2.6 0-0.6 0.6-1.3 1.5-1.3 0.8 0 1.3 0.5 1.3 0.5l-0.2 0.3c0 0-0.4-0.5-1.1-0.5-0.7 0-1.1 0.5-1.1 1 0 1.3 2.5 0.9 2.5 2.6 0 0.7-0.6 1.3-1.5 1.3-0.9 0-1.5-0.6-1.5-0.6z"/><path class="a" d="m24.5 49.3h-1.8v-0.3h4v0.3h-1.9v4.7h-0.3z"/><path fill-rule="evenodd" class="a" d="m28.8 49h1.5c0.4 0 0.7 0.1 0.9 0.2 0.4 0.2 0.7 0.6 0.7 1.2 0 0.7-0.4 1.2-1 1.3q0 0 0.1 0.2l1.1 2.1h-0.4l-1.1-2.2h-1.5v2.2h-0.3zm1.7 2.5c0.6 0 1-0.5 1-1.2 0-0.4-0.2-0.8-0.5-0.9-0.2-0.1-0.3-0.1-0.7-0.1h-1.2v2.2z"/><path fill-rule="evenodd" class="a" d="m37.1 52.3h-2.1l-0.6 1.7h-0.3l1.8-5h0.4l1.8 5h-0.3zm-1.1-2.9c0 0-0.1 0.4-0.1 0.6l-0.8 2h1.9l-0.8-2c0-0.2-0.2-0.6-0.2-0.6zm-0.8-1.2h1.7v0.2h-1.7z"/><path fill-rule="evenodd" class="a" d="m40.3 49h1.5c1.5 0 2.5 0.9 2.5 2.5 0 1.6-1 2.5-2.5 2.5h-1.5zm1.5 4.6c1.3 0 2.2-0.7 2.2-2.1 0-1.5-0.9-2.2-2.2-2.2h-1.2v4.3z"/><path class="a" d="m46.8 49h2.7v0.3h-2.4v2h2v0.3h-2v2.1h2.6v0.3h-2.9z"/><path class="a" d="m52 53.2c0 0 0.5 0.6 1.3 0.6 0.6 0 1.1-0.4 1.1-1 0-1.4-2.5-1-2.5-2.6 0-0.6 0.5-1.3 1.4-1.3 0.9 0 1.3 0.5 1.3 0.5l-0.2 0.3c0 0-0.4-0.5-1-0.5-0.8 0-1.2 0.5-1.2 1 0 1.3 2.5 0.9 2.5 2.6 0 0.7-0.5 1.3-1.4 1.3-1 0-1.5-0.6-1.5-0.6z"/><path class="a" d="m61.7 49.3h-1.8v-0.3h4v0.3h-1.9v4.7h-0.3z"/><path class="a" d="m66 49h2.7v0.3h-2.4v2h2v0.3h-2v2.1h2.6v0.3h-2.9z"/><path class="a" d="m71.2 49h0.3v4.7h2.4v0.3h-2.7z"/><path fill-rule="evenodd" class="a" d="m76 49h1.7c0.8 0 1.5 0.6 1.5 1.5 0 0.9-0.7 1.4-1.5 1.4h-1.3v2.1h-0.4zm1.7 2.6c0.7 0 1.2-0.4 1.2-1.2 0-0.7-0.5-1.1-1.2-1.1h-1.3v2.3z"/><path fill-rule="evenodd" class="a" d="m83.6 52.3h-2.1l-0.6 1.7h-0.3l1.8-5h0.3l1.9 5h-0.3zm-1.1-2.9c0 0-0.1 0.4-0.2 0.6l-0.7 2h1.9l-0.8-2c-0.1-0.2-0.2-0.6-0.2-0.6z"/><path class="a" d="m51.9 0.8c2.7 0 4 1.4 4 4.1v2.5h-8.4v-6.6zm0 9.5c2.7 0 4 1.4 4 4.1v29.2h-8.3v-33.3z"/><path class="a" d="m69.7 4.9v38.7h-8.4v-42.8h4.4c2.2 0 4 1.9 4 4.1z"/><path class="a" d="m83.5 4.9v38.7h-8.4v-42.8h4.4c2.2 0 4 1.9 4 4.1z"/><path class="a" d="m29.4 10.4h-29v33.2h10.2v-16.5h-5.2v-4.1c2.2 0 4-1.1 5.2-2.7 0.1-0.1 0.3-0.6 0.4-0.7 0.6-1.2 1.7-1.9 3.1-1.9 2 0 3.5 1.6 3.5 3.5v22.4h7.2v-22.4c0-1.9 1.6-3.5 3.5-3.5 2 0 3.6 1.6 3.6 3.5v22.4h10.2v-20.5c0-7.1-5.7-12.7-12.7-12.7z"/></svg>