<svg version="1.2" xmlns="http://www.w3.org/2000/svg" viewBox="0 0 85 85" width="85" height="85"><style>.a{fill:#b7acac}.b{fill:#fefefe}</style><path class="a" d="m84.4 42.7c0 23.3-18.9 42.2-42.2 42.2-23.3 0-42.2-18.9-42.2-42.2 0-23.3 18.9-42.2 42.2-42.2 23.3 0 42.2 18.9 42.2 42.2z"/><path fill-rule="evenodd" class="b" d="m57.9 35.9c0 10.1-3.1 18.2-13.2 18.2-1.3 0-7.6-0.1-11.1-0.4l-6.6 6.7c-0.7 0.6-1.8 0.6-2.4 0-0.7-0.7-0.7-1.8 0-2.4l6.6-6.7c-0.2-3.5-0.4-9.8-0.4-11.1 0-10 6.5-13.1 16.5-13.1 1.7 0 8.4 0.2 9.9 0.6 0.4 1.6 0.7 6.6 0.7 8.2zm-3.4 0c0-1.2-0.1-3.4-0.3-5.1-2.2-0.2-5.4-0.3-6.9-0.3-10.9 0-13.1 3.7-13.1 9.7 0 1.3 0.1 4.9 0.2 7.9l8.5-8.5-1.7-3c-0.4-0.6-0.3-1.4 0.3-1.9 0.7-0.8 2-0.6 2.5 0.3l1.3 2.2 2.3-2.2c0.6-0.7 1.7-0.7 2.3 0 0.7 0.6 0.7 1.7 0 2.4l-4.7 4.7 3.8 1.6c1 0.4 1.3 1.7 0.5 2.5-0.5 0.5-1.2 0.6-1.7 0.3l-4.9-2-6.1 6c3 0.1 6.6 0.2 7.9 0.2 2.7 0 9.8 0 9.8-14.8z"/></svg>