<svg version="1.2" xmlns="http://www.w3.org/2000/svg" viewBox="0 0 54 53" width="54" height="53"><style>.a{fill:#b7acac}.b{fill:#fefefe}</style><path class="a" d="m53.6 26.5c0 14.6-11.8 26.4-26.4 26.4-14.6 0-26.4-11.8-26.4-26.4 0-14.6 11.8-26.4 26.4-26.4 14.6 0 26.4 11.8 26.4 26.4z"/><path fill-rule="evenodd" class="b" d="m41.1 26.1v0.5c0 2.5-2 4.5-4.5 4.5h-1q-0.2 0.4-0.4 0.7-0.7 1.1-1.6 2h4c0.5 0 0.9 0.4 0.9 0.9 0 0.5-0.4 0.9-0.9 0.9h-1.6c-0.3 1.6-1.7 2.9-3.4 2.9h-11.1c-1.8 0-3.2-1.3-3.4-2.9h-1.6c-0.5 0-0.9-0.4-0.9-0.9 0-0.5 0.4-0.9 0.9-0.9h4q-1-0.9-1.7-2c-1-1.7-1.6-3.6-1.6-5.6v-3.6c0-0.5 0.4-0.9 0.9-0.9h9.9q0 0 0 0l6.3-6.3c0.4-0.3 0.9-0.3 1.3 0 0.3 0.3 0.3 0.9 0 1.2l-5.1 5.1h5.4c0.5 0 0.9 0.4 0.9 0.9v1.5l0.5-0.2c0.8-0.5 1.7-0.5 2.5 0 0.8 0.4 1.3 1.2 1.3 2.2zm-21.2 9.5c0.2 0.7 0.8 1.1 1.6 1.1h11.1c0.7 0 1.4-0.4 1.6-1.1zm15.2-9.4v-2.7h-16.1v2.7c0 3.2 1.7 6.1 4.5 7.6h7.1c2.7-1.5 4.5-4.4 4.5-7.6zm4.3 0.4v-0.5c0-0.5-0.3-0.7-0.4-0.7-0.1-0.1-0.5-0.2-0.8 0l-1.4 0.8q0 1.6-0.4 3.1h0.3c1.4 0 2.7-1.2 2.7-2.7z"/></svg>