<svg version="1.2" xmlns="http://www.w3.org/2000/svg" viewBox="0 0 85 85" width="85" height="85"><style>.a{fill:#b7acac}.b{fill:#fefefe}</style><path class="a" d="m84.4 42.5c0 23.3-18.9 42.2-42.2 42.2-23.3 0-42.2-18.9-42.2-42.2 0-23.3 18.9-42.2 42.2-42.2 23.3 0 42.2 18.9 42.2 42.2z"/><path fill-rule="evenodd" class="b" d="m38.5 55.4l3.9 3.9 3.9-3.9c-2.2-2.2-5.6-2.2-7.8 0zm-7.7-7.8l3.9 3.9c4.2-4.3 11.2-4.3 15.4 0l3.9-3.9c-6.4-6.5-16.8-6.5-23.2 0zm-7.7-7.8l3.9 3.9c8.5-8.6 22.3-8.6 30.8 0l3.9-3.9c-10.7-10.8-27.9-10.8-38.6 0z"/></svg>