<svg version="1.2" xmlns="http://www.w3.org/2000/svg" viewBox="0 0 85 85" width="85" height="85"><style>.a{fill:#b7acac}.b{fill:#fefefe;stroke:#fefefe;stroke-miterlimit:10;stroke-width:.5}</style><path class="a" d="m84.4 42.5c0 23.3-18.9 42.2-42.2 42.2-23.3 0-42.2-18.9-42.2-42.2 0-23.3 18.9-42.2 42.2-42.2 23.3 0 42.2 18.9 42.2 42.2z"/><path fill-rule="evenodd" class="b" d="m60.5 51.7c-0.1 2-1.6 3.9-4.5 5.5-2.1 1.2-4.4 2-5.6 2.4q-0.7 1.3-3.7 1.3 0 0-0.1 0c-1.4 0-3.2-0.2-4.7-0.6-1.2-0.3-2.5-0.8-3.6-1.4q-0.2 0.1-0.4 0.1-1.1 0-2.6-0.9c-1.3-0.7-2.7-1.8-3.8-2.9-1.4-1.3-4.1-4.7-3.8-6.8-0.5-1.1-1-2.4-1.4-3.6-0.4-1.6-0.6-3.4-0.6-4.9q0-2.9 1.4-3.6c0.3-1.2 1.1-3.5 2.3-5.6 1.7-3 3.5-4.5 5.5-4.6 1.3 0 2.3 0.4 3.1 1.3 1.7 2 1.6 5.8 1.4 7.8q0 0 0 0c1 0.6 1.7 1.8 2.2 3.8q0.1 0.1 0.1 0.3 1.6 0.1 3.6 2.1 2 2 2.1 3.6 0.1 0 0.3 0c2 0.6 3.2 1.3 3.7 2.3q0 0 0 0c2.1-0.2 5.8-0.4 7.8 1.4 0.9 0.8 1.4 1.8 1.3 3zm-30.9-16c1.2-0.1 2.6-0.3 3.7-0.4 1.7-0.2 2.9-0.3 3.8-0.3 0.3-2.4 0.1-5-0.8-6.1-0.4-0.3-0.7-0.5-1.3-0.5-2.1 0.1-4.2 4-5.4 7.3zm-0.3 10.8c1.5-1.1 3.9-2.6 5.3-3.5 2.4-1.5 4-2.4 5-3q-0.1-0.2-0.2-0.4c-0.4-1.5-0.8-2.1-1-2.3-0.4-0.1-1.9-0.1-5.2 0.3-2.5 0.3-4.4 0.5-5 0.7-0.3 0.6-0.4 3.2 0.3 5.9 0.2 0.7 0.5 1.5 0.8 2.3zm12.3 4.6c2.1-3.4 3.3-5.5 3.5-6.1 0-0.3-0.4-1-1.4-2-1.1-1.1-1.8-1.4-2.1-1.4-0.5 0.2-2.6 1.3-6 3.5-3 1.9-5.1 3.3-5.6 3.7 0 0.3 0.2 0.9 0.8 1.9 0.6 1 1.4 2.1 2.3 2.9 0.8 0.8 1.9 1.7 2.8 2.3 1.1 0.6 1.7 0.8 1.9 0.8 0.5-0.6 1.9-2.6 3.8-5.6zm7.8-2.8c-0.2-0.3-0.9-0.7-2.3-1.1q-0.3 0-0.5-0.1c-0.5 1-1.4 2.5-2.9 4.9-0.9 1.4-2.5 3.9-3.5 5.3 0.7 0.3 1.5 0.6 2.3 0.8 2.7 0.7 5.3 0.7 5.9 0.4 0.1-0.6 0.4-2.5 0.7-5.1 0.3-3.2 0.3-4.7 0.3-5.1zm8.3 2.1c-0.8-0.7-3-1.2-6.1-0.9 0 0.9-0.1 2.1-0.2 3.9-0.1 1-0.3 2.4-0.5 3.6 3.4-1.2 7.3-3.3 7.3-5.4 0.1-0.5-0.1-0.9-0.5-1.2z"/></svg>