<svg version="1.2" xmlns="http://www.w3.org/2000/svg" viewBox="0 0 54 54" width="54" height="54"><style>.a{fill:#b7acac}.b{fill:#fefefe;stroke:#fefefe;stroke-miterlimit:10;stroke-width:.5}</style><path class="a" d="m53.6 26.8c0 14.6-11.8 26.4-26.4 26.4-14.6 0-26.4-11.8-26.4-26.4 0-14.5 11.8-26.3 26.4-26.3 14.6 0 26.4 11.8 26.4 26.3z"/><path fill-rule="evenodd" class="b" d="m38 21l-13.8 13.8-7.1 2.7c-0.9 0.4-1.3-0.1-1-0.9l2.8-7.1 13.7-13.8c1.3-1.3 3.4-1.3 4.7 0l0.7 0.7c1.3 1.3 1.3 3.4 0 4.6zm-18.1 8.5l0.9 0.9 9.5-9.4-1-1zm1.5 1.5l1.4 1.4 9.5-9.5-1.4-1.4zm2.3 3.3l-4.3-4.2-1.6 4.2 1.7 1.6zm10-9.9l-0.9-0.9-9.5 9.4 1 1zm1.6-1.6l-4.4-4.4-1 1.1 4.3 4.3z"/></svg>