<svg version="1.2" xmlns="http://www.w3.org/2000/svg" viewBox="0 0 54 54" width="54" height="54"><style>.a{fill:#b7acac}.b{fill:#fefefe}</style><path class="a" d="m53.6 27.1c0 14.6-11.8 26.4-26.4 26.4-14.6 0-26.4-11.8-26.4-26.4 0-14.6 11.8-26.4 26.4-26.4 14.6 0 26.4 11.8 26.4 26.4z"/><path fill-rule="evenodd" class="b" d="m16.2 24.8c0-0.6 0.5-1.1 1-1.1h1.1c0.5 0 0.9 0.5 1 1v-0.2l0.8-3.5c0.4-1.4 1.6-2.4 3-2.4h8.8c1.4 0 2.7 1 3 2.4l0.8 3.5 0.1 0.2c0-0.5 0.4-1 1-1h1c0.6 0 1 0.5 1 1.1 0 0.5-0.4 1-1 1h-1c0.6 0.9 1 1.9 1 3.1v1c0 1.4-0.8 2.5-2 2.9v2.3c0 0.5-0.5 1-1.1 1h-1c-0.6 0-1-0.5-1-1v-2.1h-10.3v2.1c0 0.5-0.5 1-1.1 1h-1c-0.6 0-1-0.5-1-1v-2.3c-1.2-0.4-2.1-1.5-2.1-2.9v-1c0-1.2 0.4-2.2 1.1-3.1h-1.1c-0.5 0-1-0.5-1-1zm5.4-1.1h11.8l-0.5-2.2c-0.1-0.5-0.5-0.8-1-0.8h-8.8c-0.4 0-0.8 0.3-1 0.8zm0.8 2c-1.7 0-3.1 1.4-3.1 3.1v1c0 0.6 0.5 1.1 1 1.1h14.5c0.5 0 1-0.5 1-1.1v-1c0-1.7-1.4-3.1-3.1-3.1zm-1 2.6c0-0.9 0.7-1.6 1.5-1.6 0.9 0 1.6 0.7 1.6 1.6 0 0.8-0.7 1.5-1.6 1.5-0.8 0-1.5-0.7-1.5-1.5zm12.3 0c0 0.8-0.7 1.5-1.5 1.5-0.9 0-1.6-0.7-1.6-1.5 0-0.9 0.7-1.6 1.6-1.6 0.8 0 1.5 0.7 1.5 1.6z"/></svg>