<svg version="1.2" xmlns="http://www.w3.org/2000/svg" viewBox="0 0 54 54" width="54" height="54"><style>.a{fill:#b7acac}.b{fill:#fefefe}</style><path class="a" d="m53.6 26.8c0 14.6-11.8 26.4-26.4 26.4-14.6 0-26.4-11.8-26.4-26.4 0-14.6 11.8-26.4 26.4-26.4 14.6 0 26.4 11.8 26.4 26.4z"/><path class="b" d="m32.4 25.4c-1.8-0.9-3.5-2-5.3-2.9-1.4-0.6-3-1.2-4.5-0.7-1.7 0.5-3.3 1.6-4.6 2.8-0.9 0.8-2.1 2.2-1.8 3.5 0.3 1.6 2 1.9 3.3 1.4 1.5-0.6 3.1-2.4 4.8-1.8 1 0.4 2.2 1.4 2.4 2.5 0.3 1.1-0.8 2.4-1.8 2.6-2.1 0.4-3.2-2.6-4.8-3.5-1.5-0.9-4-0.3-4.6 1.5-0.5 1.9 1.9 4 3 5.2 1.5 1.6 2.9 3.1 5 4 2.3 0.9 4.8 0.6 7-0.4 1.8-0.8 3.5-2.1 4.6-3.9 0.9-1.7 1.3-3.7 1.4-5.6 0.1-1.6 0-2.7-0.7-4-0.8-1.6-1.8-3-2.9-4.3-1.2-1.7-2.5-3.3-4-4.8-0.9-0.9-2.2-2.4-3.7-2.3-2.6 0-2.2 3.1-1.1 4.5 1.3 1.9 3.2 3.5 4.3 5.6 0.4 0.8 1.7 0.1 1.3-0.8-0.8-1.5-2-2.8-3.1-4.1-0.6-0.7-1.2-1.3-1.6-2.1-0.5-0.9-0.2-2 0.9-1.4 1 0.6 1.9 1.6 2.6 2.4q1.7 1.8 3.2 3.8c1.4 2 3.3 4.2 3.3 6.7-0.1 1.7-0.2 3.6-1 5.2-0.8 1.6-2.2 2.8-3.9 3.6-2.1 1-4.5 1.3-6.7 0.2-1.8-1-3.1-2.6-4.5-4.1-0.6-0.7-1.2-1.4-1.7-2.1-0.8-1.4 1.1-2 2.2-1.5 1.4 0.8 2 2.6 3.5 3.4 2.9 1.5 6.5-1.9 5.1-4.9-0.8-1.5-2.5-2.8-4.2-3.1-1.3-0.1-2.6 0.8-3.7 1.5-0.5 0.2-1.5 1-2.1 0.6-0.6-0.3-0.2-0.9 0.1-1.3 0.9-1.4 2.5-2.5 4-3.2 1.6-0.8 2.9-0.4 4.5 0.4 1.7 0.8 3.3 1.8 5 2.7 0.9 0.5 1.7-0.9 0.8-1.3z"/><path class="b" d="m32 20.6c-0.3-1.1-0.7-2.2-0.8-3.3-0.1-0.6-0.1-1.3 0.3-1.6 0.1-0.1 0.3-0.1 0.5 0.1 0.3 0.3 0.3 0.8 0.5 1.2q0.3 0.9 0.6 1.9 0.6 2.4 1.1 4.8c0.3 1.5 0.6 3 0.8 4.6 0.1 1 1.6 1 1.5 0-0.4-3.5-1.2-7-2.1-10.4-0.3-1.1-0.7-2.8-1.7-3.5-1.3-0.9-2.8 0.2-3 1.6-0.3 1.2 0.2 2.4 0.5 3.6q0.2 0.7 0.3 1.4c0.3 1 1.8 0.6 1.5-0.4z"/></svg>