<svg version="1.2" xmlns="http://www.w3.org/2000/svg" viewBox="0 0 54 53" width="54" height="53"><style>.a{fill:#b7acac}.b{fill:#fefefe}</style><path class="a" d="m53.6 26.4c0 14.6-11.8 26.4-26.4 26.4-14.6 0-26.4-11.8-26.4-26.4 0-14.6 11.8-26.4 26.4-26.4 14.6 0 26.4 11.8 26.4 26.4z"/><path fill-rule="evenodd" class="b" d="m16.3 17.6c-0.7-0.6-0.7-1.5 0-2.1 0.6-0.6 1.5-0.6 2.1 0 0.6 0.6 0.6 1.5 0 2.1-0.6 0.7-1.5 0.7-2.1 0zm21.8 17.6c0.7 0.6 0.7 1.5 0 2.2-0.6 0.6-1.5 0.6-2.1 0-0.6-0.7-0.6-1.6 0-2.2 0.6-0.6 1.5-0.6 2.1 0zm-19.7 0c0.6 0.6 0.6 1.5 0 2.2-0.6 0.6-1.5 0.6-2.1 0-0.7-0.7-0.7-1.6 0-2.2 0.6-0.6 1.5-0.6 2.1 0zm19.7-19.7c0.7 0.6 0.7 1.5 0 2.1-0.6 0.7-1.5 0.7-2.1 0-0.6-0.6-0.6-1.5 0-2.1 0.6-0.6 1.5-0.6 2.1 0zm-23.3 10.9c0 0.9-0.7 1.6-1.5 1.6-0.9 0-1.6-0.7-1.6-1.6 0-0.8 0.7-1.5 1.6-1.5 0.8 0 1.5 0.7 1.5 1.5zm27.9 0c0 0.9-0.7 1.6-1.6 1.6-0.8 0-1.5-0.7-1.5-1.6 0-0.8 0.7-1.5 1.5-1.5 0.9 0 1.6 0.7 1.6 1.5zm-14 13.9c0 0.9-0.6 1.6-1.5 1.6-0.9 0-1.6-0.7-1.6-1.6 0-0.8 0.7-1.5 1.6-1.5 0.9 0 1.5 0.7 1.5 1.5zm-3.1-27.8c0-0.9 0.7-1.6 1.6-1.6 0.9 0 1.5 0.7 1.5 1.6 0 0.8-0.6 1.5-1.5 1.5-0.9 0-1.6-0.7-1.6-1.5zm12.4 13.9c0 6-4.8 10.8-10.8 10.8-6 0-10.8-4.8-10.8-10.8 0-6 4.8-10.8 10.8-10.8 6 0 10.8 4.8 10.8 10.8zm-3.1 0c0-4.3-3.4-7.7-7.7-7.7-4.3 0-7.7 3.4-7.7 7.7 0 4.3 3.4 7.7 7.7 7.7 4.3 0 7.7-3.4 7.7-7.7z"/></svg>