<svg version="1.2" xmlns="http://www.w3.org/2000/svg" viewBox="0 0 24 23" width="24" height="23"><style>.a{fill:#fefefe}</style><path fill-rule="evenodd" class="a" d="m23.3 11.7c0 6.3-5.1 11.4-11.4 11.4-2.3 0-4.5-0.7-6.3-1.9l-4.3 1.4 1.4-4.2c-1.4-1.9-2.2-4.2-2.2-6.7 0-6.2 5.1-11.3 11.4-11.3 6.3 0 11.4 5.1 11.4 11.3zm-4.6 3.1c-0.1-0.1-2.7-1.3-2.9-1.4-0.3-0.1-0.6-0.1-0.8 0.2-0.3 0.5-0.6 0.9-0.9 1.2-0.2 0.2-0.5 0.2-0.8 0.1-0.4-0.1-1.4-0.5-2.7-1.6-0.9-0.9-1.6-2-1.8-2.3-0.2-0.3 0-0.5 0.1-0.7 0.5-0.6 1.2-1 0.8-1.7 0-0.2-0.7-1.8-1-2.5-0.2-0.5-0.4-0.5-1.1-0.5-1.5 0-2.3 1.7-2.3 3.1 0 2.9 4.1 7.3 7 8.5 2.6 1.1 3.4 1 4 0.8 0.9-0.2 1.9-0.8 2.2-1.6 0.3-0.7 0.3-1.4 0.2-1.6z"/></svg>