<svg version="1.2" xmlns="http://www.w3.org/2000/svg" viewBox="0 0 40 40" width="40" height="40"><style>.a{fill:#fefefe}</style><path fill-rule="evenodd" class="a" d="m39.6 19.6c0 10.8-8.8 19.6-19.6 19.6-4 0-7.7-1.1-10.8-3.2l-7.6 2.4 2.5-7.3c-2.4-3.2-3.8-7.2-3.8-11.5 0-10.9 8.8-19.7 19.7-19.7 10.8 0 19.6 8.8 19.6 19.7zm-7.8 5.4c-0.2-0.4-4.7-2.5-5.1-2.6-0.5-0.2-1-0.1-1.4 0.5-0.5 0.7-1.1 1.5-1.5 2-0.4 0.4-0.9 0.4-1.4 0.2-0.6-0.3-2.4-0.9-4.6-2.8-1.7-1.5-2.9-3.4-3.2-4-0.3-0.6 0-0.9 0.2-1.2 0.9-1.1 2-1.8 1.4-2.9-0.1-0.3-1.2-3.1-1.7-4.3-0.4-1-0.7-1-1.9-1-2.6 0-4.1 3-4.1 5.5 0 5 7.1 12.5 12.2 14.6 4.5 1.9 5.8 1.7 6.9 1.5 1.5-0.4 3.3-1.5 3.8-2.8 0.5-1.4 0.5-2.5 0.4-2.7z"/></svg>